<svg width="76" height="100" viewBox="0 0 76 100" fill="none" xmlns="http://www.w3.org/2000/svg">
<path d="M46.0813 0H13C9.68479 0 6.50537 1.31696 4.16116 3.66117C1.81696 6.00537 0.5 9.18479 0.5 12.5V87.5C0.5 90.8152 1.81696 93.9946 4.16116 96.3388C6.50537 98.683 9.68479 100 13 100H63C66.3152 100 69.4946 98.683 71.8388 96.3388C74.183 93.9946 75.5 90.8152 75.5 87.5V29.4187C75.4996 27.7613 74.8409 26.1718 73.6687 25L50.5 1.83125C49.3282 0.659067 47.7387 0.000353984 46.0813 0V0ZM47.375 21.875V9.375L66.125 28.125H53.625C51.9674 28.125 50.3777 27.4665 49.2056 26.2944C48.0335 25.1223 47.375 23.5326 47.375 21.875ZM50.5 43.75V50.475C53.875 51.5125 56.75 54.2063 56.75 58.125V73.125C56.75 78.225 51.8688 81.25 47.375 81.25H28.625C24.1313 81.25 19.25 78.225 19.25 73.125V58.125C19.25 54.2063 22.125 51.5125 25.5 50.475V43.75C25.5 40.4348 26.817 37.2554 29.1612 34.9112C31.5054 32.567 34.6848 31.25 38 31.25C41.3152 31.25 44.4946 32.567 46.8388 34.9112C49.183 37.2554 50.5 40.4348 50.5 43.75Z" fill="black"/>
<path d="M31.75 43.75C31.75 42.0924 32.4085 40.5027 33.5806 39.3306C34.7527 38.1585 36.3424 37.5 38 37.5C39.6576 37.5 41.2473 38.1585 42.4194 39.3306C43.5915 40.5027 44.25 42.0924 44.25 43.75V50H31.75V43.75Z" fill="black"/>
</svg>
